# xmcd
#
# Track frame offsets: 
#        150
#        20693
#        65028
#        101960
#        134189
#        163383
#        180272
#        185919
#        214595
#        247437
#        260888
#
# Disc length: 4365 seconds
#
# Revision: 0
# Processed by: cddbd v1.5.1PL2 Copyright (c) Steve Scherf et al.
# Submitted via: ExactAudioCopy v0.95b4
#
DISCID=be110b0b
DTITLE=Babo Blues Band - 2002-10-12 - Camp Hill PA
DYEAR=2002
DGENRE=Blues
TTITLE0=The Girl From Impanema
TTITLE1=Freeway Jam
TTITLE2=Funk Jam
TTITLE3=Stormy Monday
TTITLE4=Oye Como Va
TTITLE5=Sunshine Of Your Love
TTITLE6=Trademark
TTITLE7=Superstition
TTITLE8=Rock Jam
TTITLE9=Walking The Dog
TTITLE10=Freeway Jam
EXTD=
EXTT0=
EXTT1=
EXTT2=
EXTT3=
EXTT4=
EXTT5=
EXTT6=
EXTT7=
EXTT8=
EXTT9=
EXTT10=
PLAYORDER=
